{"title":"Tchaikovsky - Swan lake [Eac Flac Cue]TNTVillage","uid":6255696,"size":694379073,"categoryP":"audio","categoryS":"flac","magnet":"?xt=urn:btih:85053bb0b5982d5c145b8e6f8cb76dda3368617f&amp;dn=Tchaikovsky+-+Swan+lake+%5BEac+Flac+Cue%5DTNTVillage&amp;tr=udp%3A%2F%2Ftracker.openbittorrent.com%3A80&amp;tr=udp%3A%2F%2Fopen.demonii.com%3A1337&amp;tr=udp%3A%2F%2Ftracker.coppersurfer.tk%3A6969&amp;tr=udp%3A%2F%2Fexodus.desync.com%3A6969","seeders":5,"leechers":1,"uploader":"RJ65ITA","files":76,"time":1300565809,"description":"Il Lago dei cigni/Swan Lake/Schwanensee/Le Lac des cygnes/El lago de los cisnes\n\nLondon Simphonic Orchestra - Michael Tilson Thomas\n\nSONY CLASSICAL - High Definition Sound (1991)\n\n2 CDs - Flac\n\n\nExtract of EAC log\n\n_________________________________________________________________\n\nExact Audio Copy V1.0 beta 1 from 15. November 2010\n\nEAC extraction logfile from 16. March 2011, 15:59\n\nLondon Symphony Orchestra - Michael Tilson Thomas / Peter Ilyich Tchaikovsky - Swan Lake\n\nUsed drive  : HL-DT-STDVD-RAM GSA-H58N   Adapter: 3  ID: 1\n\nRead mode               : Secure\nUtilize accurate stream : Yes\nDefeat audio cache      : Yes\nMake use of C2 pointers : No\n\nRead offset correction                      : 102\nOverread into Lead-In and Lead-Out          : No\nFill up missing offset samples with silence : Yes\nDelete leading and trailing silent blocks   : No\nNull samples used in CRC calculations       : Yes\nUsed interface                              : Installed external ASPI interface\nGap handling                                : Appended to previous track\n\nUsed output format              : User Defined Encoder\nSelected bitrate                : 896 kBit/s\nQuality                         : High\nAdd ID3 tag                     : No\nCommand line compressor         : C:\\Programmi\\Exact Audio Copy\\Flac\\flac.exe\nAdditional command line options :     -8 -V -T &quot;ARTIST=%a&quot; -T &quot;TITLE=%t&quot; -T &quot;ALBUM=%g&quot; -T &quot;DATE=%y&quot; -T &quot;TRACKNUMBER=%n&quot; -T &quot;GENRE=%m&quot;  %s\n\n\nTOC of the extracted CD\n\n     Track |   Start  |  Length  | Start sector | End sector \n    ---------------------------------------------------------\n        1  |  0:00.00 |  1:37.10 |         0    |     7284   \n        2  |  1:37.10 |  1:43.22 |      7285    |    15031   \n        3  |  3:20.32 |  3:22.15 |     15032    |    30196   \n        4  |  6:42.47 |  2:32.53 |     30197    |    41649   \n        5  |  9:15.25 |  2:25.62 |     41650    |    52586   \n        6  | 11:41.12 |  8:04.13 |     52587    |    88899   \n        7  | 19:45.25 |  1:34.17 |     88900    |    95966   \n        8  | 21:19.42 |  2:40.53 |     95967    |   108019   \n        9  | 24:00.20 |  1:19.05 |    108020    |   113949   \n       10  | 25:19.25 |  3:06.42 |    113950    |   127941   \n       11  | 28:25.67 |  0:41.60 |    127942    |   131076   \n       12  | 29:07.52 |  0:52.65 |    131077    |   135041   \n       13  | 30:00.42 |  1:22.70 |    135042    |   141261   \n       14  | 31:23.37 |  1:50.58 |    141262    |   149569   \n       15  | 33:14.20 |  3:10.45 |    149570    |   163864   \n       16  | 36:24.65 |  4:42.10 |    163865    |   185024   \n       17  | 41:07.00 |  2:39.10 |    185025    |   196959   \n       18  | 43:46.10 |  2:09.40 |    196960    |   206674   \n       19  | 45:55.50 |  4:37.42 |    206675    |   227491   \n       20  | 50:33.17 |  3:30.28 |    227492    |   243269   \n       21  | 54:03.45 |  1:42.22 |    243270    |   250941   \n       22  | 55:45.67 |  1:48.25 |    250942    |   259066   \n       23  | 57:34.17 |  5:12.45 |    259067    |   282511   \n       24  | 62:46.62 |  2:58.00 |    282512    |   295861   \n       25  | 65:44.62 |  6:31.23 |    295862    |   325209   \n\n\nTrack  1\n\n     Filename C:\\Peter Ilyich Tchaikovsky - Swan Lake\\CD2\\01 - Act 2 - No. 13 Danses des cygnes. VI. Tout le monde danse. Tempo di valse.wav\n\n     Pre-gap length  0:00:02.00\n\n     Peak level 82.6 %\n     Extraction speed 0.9 X\n     Track quality 99.7 %\n     Test CRC 7A64C8D6\n     Copy CRC 7A64C8D6\n     Accurately ripped (confidence 9)  [EBB7897A]\n     Copy OK\n\nTrack  2\n\n     Filename C:\\Peter Ilyich Tchaikovsky - Swan Lake\\CD2\\02 - Act 2 - No. 13 Danses des cygnes. VII. Coda. Allegro vivo.wav\n\n     Peak level 82.6 %\n     Extraction speed 1.2 X\n     Track quality 99.8 %\n     Test CRC 4B99DAE5\n     Copy CRC 4B99DAE5\n     Accurately ripped (confidence 9)  [46A669E2]\n     Copy OK\n\nTrack  3\n\n     Filename C:\\Peter Ilyich Tchaikovsky - Swan Lake\\CD2\\03 - Act 2 - No. 14 ScÃƒÂ¨ne. Moderato.wav\n\n     Peak level 87.0 %\n     Extraction speed 1.9 X\n     Track quality 100.0 %\n     Test CRC FEDB683B\n     Copy CRC FEDB683B\n     Accurately ripped (confidence 9)  [73F43A09]\n     Copy OK\n\nTrack  4\n\n     Filename C:\\Peter Ilyich Tchaikovsky - Swan Lake\\CD2\\04 - Act 3 - No. 15 Allegro giusto.wav\n\n     Pre-gap length  0:00:07.17\n\n     Peak level 96.7 %\n     Extraction speed 1.9 X\n     Track quality 100.0 %\n     Test CRC 683A4DA0\n     Copy CRC 683A4DA0\n     Accurately ripped (confidence 9)  [ADCD767E]\n     Copy OK\n\nTrack  5\n\n     Filename C:\\Peter Ilyich Tchaikovsky - Swan Lake\\CD2\\05 - Act 3 - No. 16 Danses du corps de ballet et des nains. Moderato assai - Allegro vivo - Trio.wav\n\n     Peak level 93.8 %\n     Extraction speed 1.9 X\n     Track quality 100.0 %\n     Test CRC DB0F3B28\n     Copy CRC DB0F3B28\n     Accurately ripped (confidence 9)  [97237B15]\n     Copy OK\n\nTrack  6\n\n     Filename C:\\Peter Ilyich Tchaikovsky - Swan Lake\\CD2\\06 - Act 3 - No. 17 ScÃƒÂ¨ne. La sortie des invitÃƒÂ©s et la valse. Allegro - Tempo di valse.wav\n\n     Peak level 76.7 %\n     Extraction speed 2.5 X\n     Track quality 100.0 %\n     Test CRC 73EEDCB9\n     Copy CRC 73EEDCB9\n     Accurately ripped (confidence 9)  [DD1652F5]\n     Copy OK\n\nTrack  7\n\n     Filename C:\\Peter Ilyich Tchaikovsky - Swan Lake\\CD2\\07 - Act 3 - No. 18 ScÃƒÂ¨ne. Allegro.wav\n\n     Peak level 96.1 %\n     Extraction speed 2.0 X\n     Track quality 100.0 %\n     Test CRC A3F8637A\n     Copy CRC A3F8637A\n     Accurately ripped (confidence 9)  [0FFBCD4B]\n     Copy OK\n\nTrack  8\n\n     Filename C:\\Peter Ilyich Tchaikovsky - Swan Lake\\CD2\\08 - Act 3 - No. 19 Pas de six. Intrada. Moderato assai.wav\n\n     Peak level 68.3 %\n     Extraction speed 1.9 X\n     Track quality 99.9 %\n     Test CRC E14AED3C\n     Copy CRC E14AED3C\n     Accurately ripped (confidence 9)  [98F0BB88]\n     Copy OK\n\nTrack  9\n\n     Filename C:\\Peter Ilyich Tchaikovsky - Swan Lake\\CD2\\09 - Act 3 - No. 19 Pas de six. Variation. I. Allegro.wav\n\n     Peak level 37.8 %\n     Extraction speed 2.0 X\n     Track quality 100.0 %\n     Test CRC E4F69BA5\n     Copy CRC E4F69BA5\n     Accurately ripped (confidence 9)  [F018BE19]\n     Copy OK\n\nTrack 10\n\n     Filename C:\\Peter Ilyich Tchaikovsky - Swan Lake\\CD2\\10 - Act 3 - No. 19 Pas de six. Variation. II. Andante con moto.wav\n\n     Peak level 91.9 %\n     Extraction speed 2.6 X\n     Track quality 100.0 %\n     Test CRC B53F91A2\n     Copy CRC B53F91A2\n     Accurately ripped (confidence 9)  [67D59C4C]\n     Copy OK\n\nTrack 11\n\n     Filename C:\\Peter Ilyich Tchaikovsky - Swan Lake\\CD2\\11 - Act 3 - No. 19 Pas de six. Variation. III. Moderato.wav\n\n     Peak level 43.3 %\n     Extraction speed 1.6 X\n     Track quality 100.0 %\n     Test CRC 366307CE\n     Copy CRC 366307CE\n     Accurately ripped (confidence 9)  [1DCE9B1D]\n     Copy OK\n\nTrack 12\n\n     Filename C:\\Peter Ilyich Tchaikovsky - Swan Lake\\CD2\\12 - Act 3 - No. 19 Pas de six. Variation. IV. Allegro - Allegro semplice.wav\n\n     Peak level 58.4 %\n     Extraction speed 1.8 X\n     Track quality 100.0 %\n     Test CRC 7CD47A0F\n     Copy CRC 7CD47A0F\n     Accurately ripped (confidence 9)  [6532E50F]\n     Copy OK\n\nTrack 13\n\n     Filename C:\\Peter Ilyich Tchaikovsky - Swan Lake\\CD2\\13 - Act 3 - No. 19 Pas de six. Variation. V. Moderato.wav\n\n     Peak level 56.7 %\n     Extraction speed 2.2 X\n     Track quality 100.0 %\n     Test CRC E645C53B\n     Copy CRC E645C53B\n     Accurately ripped (confidence 9)  [4B30577A]\n     Copy OK\n\nTrack 14\n\n     Filename C:\\Peter Ilyich Tchaikovsky - Swan Lake\\CD2\\14 - Act 3 - No. 19 Pas de six. Coda. Allegro molto.wav\n\n     Peak level 93.5 %\n     Extraction speed 2.4 X\n     Track quality 100.0 %\n     Test CRC 2FD74D2F\n     Copy CRC 2FD74D2F\n     Accurately ripped (confidence 9)  [79B6B9B0]\n     Copy OK\n\nTrack 15\n\n     Filename C:\\Peter Ilyich Tchaikovsky - Swan Lake\\CD2\\15 - Act 3 - No. 20 Danse hongroise. Czardas. Moderato assai - Allegro moderato - Vivace.wav\n\n     Peak level 72.0 %\n     Extraction speed 2.4 X\n     Track quality 99.9 %\n     Test CRC 0F5CD559\n     Copy CRC 0F5CD559\n     Accurately ripped (confidence 9)  [B917AAA3]\n     Copy OK\n\nTrack 16\n\n     Filename C:\\Peter Ilyich Tchaikovsky - Swan Lake\\CD2\\16 - Act 3 - No. 20 Danse russe. Moderato - Andante semplice - Allegro vivo.wav\n\n     Peak level 87.0 %\n     Extraction speed 3.1 X\n     Track quality 100.0 %\n     Test CRC 9847D3DF\n     Copy CRC 9847D3DF\n     Accurately ripped (confidence 9)  [99050CE1]\n     Copy OK\n\nTrack 17\n\n     Filename C:\\Peter Ilyich Tchaikovsky - Swan Lake\\CD2\\17 - Act 3 - No. 21 Danse espagnole. Allegro non troppo (Tempo di bolero).wav\n\n     Peak level 66.4 %\n     Extraction speed 2.9 X\n     Track quality 100.0 %\n     Test CRC A6305BC5\n     Copy CRC A6305BC5\n     Accurately ripped (confidence 9)  [A2B474DE]\n     Copy OK\n\nTrack 18\n\n     Filename C:\\Peter Ilyich Tchaikovsky - Swan Lake\\CD2\\18 - Act 3 - No. 22 Danse napolitaine. Allegro moderato - Presto.wav\n\n     Peak level 69.6 %\n     Extraction speed 2.8 X\n     Track quality 100.0 %\n     Test CRC 69811AAA\n     Copy CRC 69811AAA\n     Accurately ripped (confidence 9)  [7E59D106]\n     Copy OK\n\nTrack 19\n\n     Filename C:\\Peter Ilyich Tchaikovsky - Swan Lake\\CD2\\19 - Act 3 - No. 23 Mazurka. Tempo di mazurka.wav\n\n     Peak level 90.5 %\n     Extraction speed 3.3 X\n     Track quality 100.0 %\n     Test CRC AACE2BEB\n     Copy CRC AACE2BEB\n     Accurately ripped (confidence 9)  [41C3ACE1]\n     Copy OK\n\nTrack 20\n\n     Filename C:\\Peter Ilyich Tchaikovsky - Swan Lake\\CD2\\20 - Act 3 - No. 24 ScÃƒÂ¨ne. Allegro - Valse - Allegro vivo.wav\n\n     Peak level 100.0 %\n     Extraction speed 3.3 X\n     Track quality 100.0 %\n     Test CRC DF6B52F7\n     Copy CRC DF6B52F7\n     Accurately ripped (confidence 9)  [CF21BE76]\n     Copy OK\n\nTrack 21\n\n     Filename C:\\Peter Ilyich Tchaikovsky - Swan Lake\\CD2\\21 - Act 4 - No. 25 Entr'acte. Moderato.wav\n\n     Pre-gap length  0:00:07.43\n\n     Peak level 85.2 %\n     Extraction speed 2.2 X\n     Track quality 99.8 %\n     Test CRC 169DAF4B\n     Copy CRC 169DAF4B\n     Accurately ripped (confidence 9)  [2A787FCA]\n     Copy OK\n\nTrack 22\n\n     Filename C:\\Peter Ilyich Tchaikovsky - Swan Lake\\CD2\\22 - Act 4 - No. 26 ScÃƒÂ¨ne. Allegro non troppo.wav\n\n     Peak level 55.1 %\n     Extraction speed 2.9 X\n     Track quality 100.0 %\n     Test CRC 34BE89BD\n     Copy CRC 34BE89BD\n     Accurately ripped (confidence 9)  [83321FE2]\n     Copy OK\n\nTrack 23\n\n     Filename C:\\Peter Ilyich Tchaikovsky - Swan Lake\\CD2\\23 - Act 4 - No. 27 Danses des petits cygnes. Moderato.wav\n\n     Peak level 66.2 %\n     Extraction speed 3.7 X\n     Track quality 100.0 %\n     Test CRC 6C4C52E5\n     Copy CRC 6C4C52E5\n     Accurately ripped (confidence 9)  [0692B56B]\n     Copy OK\n\nTrack 24\n\n     Filename C:\\Peter Ilyich Tchaikovsky - Swan Lake\\CD2\\24 - Act 4 - No. 28 ScÃƒÂ¨ne. Allegro agitato - Molto meno mosso - Allegro vivace.wav\n\n     Peak level 98.2 %\n     Extraction speed 2.9 X\n     Track quality 99.9 %\n     Test CRC D041726A\n     Copy CRC D041726A\n     Accurately ripped (confidence 9)  [604CF02D]\n     Copy OK\n\nTrack 25\n\n     Filename C:\\Peter Ilyich Tchaikovsky - Swan Lake\\CD2\\25 - Act 4 - No. 29. ScÃƒÂ¨ne finale. Andante - Allegro agitato - Alla breve. Moderato e maestoso.wav\n\n     Peak level 99.2 %\n     Extraction speed 3.9 X\n     Track quality 100.0 %\n     Test CRC E5F19C72\n     Copy CRC E5F19C72\n     Accurately ripped (confidence 9)  [A0A6A86F]\n     Copy OK\n\n\nAll tracks accurately ripped\n\nNo errors occurred\n\nEnd of status report\n\n==== Log checksum C39913CD775661AD42E1563DA39D93658FAF6BB0E05A72EDB735F44D68BC43A0 ====\n\n","torrent":{"xt":"urn:btih:85053bb0b5982d5c145b8e6f8cb76dda3368617f","amp;dn":"Tchaikovsky+-+Swan+lake+%5BEac+Flac+Cue%5DTNTVillage","amp;tr":["udp%3A%2F%2Ftracker.openbittorrent.com%3A80","udp%3A%2F%2Fopen.demonii.com%3A1337","udp%3A%2F%2Ftracker.coppersurfer.tk%3A6969","udp%3A%2F%2Fexodus.desync.com%3A6969"],"infoHash":"85053bb0b5982d5c145b8e6f8cb76dda3368617f","infoHashBuffer":{"type":"Buffer","data":[133,5,59,176,181,152,45,92,20,91,142,111,140,183,109,218,51,104,97,127]},"announce":[],"urlList":[]}}